<svg width="175" height="35" viewBox="0 0 175 35" fill="none" xmlns="http://www.w3.org/2000/svg">
<path d="M17.4999 25.5495L23.552 29.2099C24.6603 29.8807 26.0166 28.8891 25.7249 27.6349L24.1207 20.7516L29.4728 16.1141C30.4499 15.2682 29.9249 13.6641 28.6416 13.562L21.5978 12.9641L18.8416 6.45991C18.3457 5.27866 16.6541 5.27866 16.1582 6.45991L13.402 12.9495L6.35823 13.5474C5.07489 13.6495 4.54989 15.2537 5.52698 16.0995L10.8791 20.737L9.27489 27.6203C8.98323 28.8745 10.3395 29.8662 11.4478 29.1953L17.4999 25.5495V25.5495Z" fill="#FFB200"/>
<path d="M122.5 25.5495L128.552 29.2099C129.66 29.8807 131.017 28.8891 130.725 27.6349L129.121 20.7516L134.473 16.1141C135.45 15.2682 134.925 13.6641 133.642 13.562L126.598 12.9641L123.842 6.45991C123.346 5.27866 121.654 5.27866 121.158 6.45991L118.402 12.9495L111.358 13.5474C110.075 13.6495 109.55 15.2537 110.527 16.0995L115.879 20.737L114.275 27.6203C113.983 28.8745 115.339 29.8662 116.448 29.1953L122.5 25.5495V25.5495Z" fill="#FFB200"/>
<path d="M87.4999 25.5495L93.552 29.2099C94.6603 29.8807 96.0166 28.8891 95.7249 27.6349L94.1207 20.7516L99.4728 16.1141C100.45 15.2682 99.9249 13.6641 98.6416 13.562L91.5978 12.9641L88.8416 6.45991C88.3457 5.27866 86.6541 5.27866 86.1582 6.45991L83.402 12.9495L76.3582 13.5474C75.0749 13.6495 74.5499 15.2537 75.527 16.0995L80.8791 20.737L79.2749 27.6203C78.9832 28.8745 80.3395 29.8662 81.4478 29.1953L87.4999 25.5495V25.5495Z" fill="#FFB200"/>
<path d="M52.4999 25.5495L58.552 29.2099C59.6603 29.8807 61.0166 28.8891 60.7249 27.6349L59.1207 20.7516L64.4728 16.1141C65.4499 15.2682 64.9249 13.6641 63.6416 13.562L56.5978 12.9641L53.8416 6.45991C53.3457 5.27866 51.6541 5.27866 51.1582 6.45991L48.402 12.9495L41.3582 13.5474C40.0749 13.6495 39.5499 15.2537 40.527 16.0995L45.8791 20.737L44.2749 27.6203C43.9832 28.8745 45.3395 29.8662 46.4478 29.1953L52.4999 25.5495V25.5495Z" fill="#FFB200"/>
<path d="M157.5 25.5495L163.552 29.2099C164.66 29.8807 166.017 28.8891 165.725 27.6349L164.121 20.7516L169.473 16.1141C170.45 15.2682 169.925 13.6641 168.642 13.562L161.598 12.9641L158.842 6.45991C158.346 5.27866 156.654 5.27866 156.158 6.45991L153.402 12.9495L146.358 13.5474C145.075 13.6495 144.55 15.2537 145.527 16.0995L150.879 20.737L149.275 27.6203C148.983 28.8745 150.339 29.8662 151.448 29.1953L157.5 25.5495V25.5495Z" fill="#FFB200"/>
</svg>
