<svg width="92" height="24" viewBox="0 0 92 24" fill="none" xmlns="http://www.w3.org/2000/svg">
<path d="M9.18 0.593999V16.948C9.18 17.764 9.37267 18.3533 9.758 18.716C10.166 19.056 10.7213 19.226 11.424 19.226C11.968 19.226 12.4327 19.1693 12.818 19.056C13.226 18.92 13.5887 18.7273 13.906 18.478L14.518 22.048C13.9513 22.456 13.2373 22.7733 12.376 23C11.5147 23.2267 10.6307 23.34 9.724 23.34C8.432 23.34 7.31 23.1587 6.358 22.796C5.42867 22.4333 4.70333 21.8553 4.182 21.062C3.68333 20.2687 3.42267 19.2147 3.4 17.9V2.192L9.18 0.593999ZM14.246 6V10.114H0.476V6H14.246ZM24.5318 23.34C22.6505 23.34 21.0185 22.9887 19.6358 22.286C18.2758 21.5833 17.2218 20.5747 16.4738 19.26C15.7258 17.9453 15.3518 16.3587 15.3518 14.5C15.3518 12.6413 15.7258 11.0547 16.4738 9.74C17.2218 8.42533 18.2645 7.41667 19.6018 6.714C20.9618 6.01133 22.5145 5.66 24.2598 5.66C26.0505 5.66 27.5691 6.01133 28.8158 6.714C30.0851 7.394 31.0485 8.346 31.7058 9.57C32.3631 10.7713 32.6918 12.154 32.6918 13.718C32.6918 14.126 32.6805 14.534 32.6578 14.942C32.6351 15.35 32.6011 15.69 32.5558 15.962H19.0918V12.868H30.0058L27.2518 13.922C27.2518 12.562 27.0025 11.5193 26.5038 10.794C26.0278 10.0687 25.2798 9.706 24.2598 9.706C23.5345 9.706 22.9111 9.876 22.3898 10.216C21.8911 10.556 21.5058 11.0887 21.2338 11.814C20.9845 12.5393 20.8598 13.4687 20.8598 14.602C20.8598 15.7127 21.0071 16.6193 21.3018 17.322C21.5965 18.002 22.0158 18.5007 22.5598 18.818C23.1038 19.1127 23.7611 19.26 24.5318 19.26C25.3931 19.26 26.0731 19.09 26.5718 18.75C27.0931 18.41 27.4785 17.934 27.7278 17.322L32.3518 18.852C32.0345 19.8267 31.4791 20.654 30.6858 21.334C29.9151 21.9913 28.9858 22.49 27.8978 22.83C26.8325 23.17 25.7105 23.34 24.5318 23.34ZM44.7312 12.222C44.7312 11.4287 44.5046 10.8053 44.0513 10.352C43.6206 9.876 43.0313 9.638 42.2832 9.638C41.5352 9.638 40.8892 9.83067 40.3452 10.216C39.8239 10.5787 39.4612 11.236 39.2572 12.188L34.3612 11.032C34.6786 9.4 35.5172 8.09667 36.8772 7.122C38.2372 6.14733 40.1526 5.66 42.6233 5.66C44.2779 5.66 45.6832 5.90933 46.8392 6.408C48.0179 6.884 48.9133 7.60933 49.5253 8.584C50.1599 9.536 50.4772 10.7147 50.4772 12.12V18.342C50.4772 19.226 50.8739 19.668 51.6673 19.668C52.0753 19.668 52.4039 19.6227 52.6532 19.532L52.3133 22.83C51.6333 23.1473 50.8059 23.306 49.8312 23.306C48.9473 23.306 48.1653 23.17 47.4853 22.898C46.8053 22.6033 46.2726 22.1727 45.8872 21.606C45.5019 21.0167 45.3093 20.28 45.3093 19.396V19.192L45.9552 18.954C45.9552 19.9287 45.6606 20.7447 45.0713 21.402C44.5046 22.0593 43.7566 22.5467 42.8272 22.864C41.9206 23.1813 40.9686 23.34 39.9712 23.34C38.8152 23.34 37.8066 23.1587 36.9452 22.796C36.0839 22.4333 35.4152 21.912 34.9392 21.232C34.4859 20.5293 34.2592 19.668 34.2592 18.648C34.2592 17.424 34.6219 16.4153 35.3472 15.622C36.0952 14.806 37.2626 14.2393 38.8492 13.922L45.2752 12.596L45.2413 15.656L41.9772 16.336C41.2972 16.472 40.7872 16.676 40.4472 16.948C40.1299 17.1973 39.9712 17.5827 39.9712 18.104C39.9712 18.6027 40.1526 18.9767 40.5152 19.226C40.8779 19.4753 41.3086 19.6 41.8072 19.6C42.1926 19.6 42.5553 19.5433 42.8952 19.43C43.2579 19.3167 43.5752 19.1467 43.8472 18.92C44.1192 18.6707 44.3346 18.3647 44.4932 18.002C44.6519 17.6393 44.7312 17.2087 44.7312 16.71V12.222ZM54.2547 23V6H59.4227L59.5927 9.298C60.1367 8.09667 60.896 7.19 61.8707 6.578C62.868 5.966 64.0127 5.66 65.3047 5.66C66.574 5.66 67.6734 5.94333 68.6027 6.51C69.532 7.07667 70.2234 7.91533 70.6767 9.026C71.0394 8.278 71.504 7.65467 72.0707 7.156C72.66 6.65733 73.3287 6.28333 74.0767 6.034C74.8247 5.78467 75.5954 5.66 76.3887 5.66C77.522 5.66 78.5194 5.88667 79.3807 6.34C80.242 6.77067 80.922 7.43933 81.4207 8.346C81.942 9.23 82.2027 10.3407 82.2027 11.678V23H76.4227V13.004C76.4227 11.916 76.2074 11.1567 75.7767 10.726C75.3687 10.2953 74.8134 10.08 74.1107 10.08C73.544 10.08 73.0227 10.2273 72.5467 10.522C72.0934 10.794 71.742 11.2133 71.4927 11.78C71.2434 12.3467 71.1187 13.0607 71.1187 13.922V23H65.3387V13.004C65.3387 11.916 65.1234 11.1567 64.6927 10.726C64.262 10.2953 63.7067 10.08 63.0267 10.08C62.5054 10.08 62.0067 10.216 61.5307 10.488C61.0774 10.76 60.7147 11.1907 60.4427 11.78C60.1707 12.3467 60.0347 13.0947 60.0347 14.024V23H54.2547Z" fill="white"/>
<path d="M88.4385 17.152C89.5038 17.152 90.3312 17.424 90.9205 17.968C91.5325 18.512 91.8385 19.2713 91.8385 20.246C91.8385 21.198 91.5325 21.946 90.9205 22.49C90.3312 23.034 89.5038 23.306 88.4385 23.306C87.3958 23.306 86.5685 23.034 85.9565 22.49C85.3445 21.946 85.0385 21.198 85.0385 20.246C85.0385 19.2713 85.3445 18.512 85.9565 17.968C86.5685 17.424 87.3958 17.152 88.4385 17.152Z" fill="#1E71FF"/>
</svg>
